<svg width="1440" height="590" fill="none" xmlns="http://www.w3.org/2000/svg"><g clip-path="url(#clip0_401_15829)" stroke-width="2" stroke-linecap="round" stroke-linejoin="round"><path d="M1028.4 588.49c1.1.001 2.19-.215 3.21-.637a8.36 8.36 0 0 0 4.55-4.542c.42-1.019.64-2.111.64-3.213v0c0-1.103-.22-2.195-.64-3.214a8.388 8.388 0 0 0-4.55-4.542 8.391 8.391 0 0 0-3.21-.636h-84.281a8.4 8.4 0 0 1-5.939-14.338 8.39 8.39 0 0 1 5.939-2.455h50.708c2.226 0 4.36-.884 5.933-2.458a8.408 8.408 0 0 0 2.46-5.934c0-1.102-.22-2.195-.64-3.214a8.364 8.364 0 0 0-1.82-2.725 8.354 8.354 0 0 0-5.933-2.461h-17.506a8.4 8.4 0 0 1-3.214-16.157 8.396 8.396 0 0 1 3.214-.636h.733a8.394 8.394 0 0 0 7.755-5.186 8.401 8.401 0 0 0 .636-3.215v0a8.389 8.389 0 0 0-8.391-8.391h-7.949M405.329 588.49a8.39 8.39 0 0 1-8.4-8.392v0a8.4 8.4 0 0 1 2.461-5.937 8.377 8.377 0 0 1 5.939-2.455h84.281a8.395 8.395 0 0 0 5.939-2.461 8.398 8.398 0 0 0 0-11.877 8.39 8.39 0 0 0-5.939-2.455h-50.708a8.39 8.39 0 0 1-8.391-8.392v0a8.4 8.4 0 0 1 2.454-5.939 8.39 8.39 0 0 1 5.937-2.461h17.506a8.4 8.4 0 0 0 8.4-8.401v0a8.384 8.384 0 0 0-5.186-7.756 8.396 8.396 0 0 0-3.214-.636h-.733a8.403 8.403 0 0 1-8.4-8.401v0a8.397 8.397 0 0 1 8.4-8.391h7.949" stroke="#1B96FF"/><path d="m1171.27 302.742-16.25 16.263m284.1-284.131-251.29 251.314m-940.517.186L.883 39.918m279.385 279.414-16.649-16.651" stroke="#3A49DA"/><path d="M862.373 470.492h140.707m-571.147.176 139.874-.176m15.978 97.486 3.1 3.1m3.1-3.1-3.1 3.1m0-4.16v4.161m38.978-3.101 3.101 3.1m3.1-3.1-3.101 3.1m0-4.16v4.161m38.979-3.101 3.1 3.1m3.1-3.1-3.1 3.1m0-4.16v4.161m38.979-3.101 3.1 3.1m3.1-3.1-3.1 3.1m0-4.16v4.161m38.978-3.101 3.1 3.1m3.1-3.1-3.1 3.1m0-4.16v4.161m38.979-3.101 3.1 3.1m3.109-3.1-3.109 3.1m0-4.16v4.161m38.978-3.101 3.109 3.1m3.101-3.1-3.101 3.1m0-4.16v4.161M563.15 585.186l3.101 3.1m3.1-3.1-3.101 3.1m0-4.16v4.16m38.97-3.1 3.1 3.1m3.101-3.1-3.101 3.1m0-4.16v4.16m38.961-3.1 3.1 3.1m3.101-3.1-3.101 3.1m0-4.16v4.16m38.97-3.1 3.1 3.1m3.1-3.1-3.1 3.1m0-4.16v4.16m38.961-3.1 3.1 3.1m3.1-3.1-3.1 3.1m0-4.16v4.16m38.961-3.1 3.1 3.1m3.109-3.1-3.109 3.1m0-4.16v4.16m38.969-3.1 3.101 3.1m3.1-3.1-3.1 3.1m0-4.16v4.16m38.961-3.1 3.1 3.1m3.1-3.1-3.1 3.1m0-4.16v4.16m-314.53-37.525 3.1 3.101m3.101-3.1-3.101 3.1m0-4.152v4.152m332.981-3.1 3.101 3.1m3.1-3.1-3.101 3.1m0-4.152v4.152M507.417 348.704l-.963 2.782a.685.685 0 0 1-.398.433l-2.596 1.025a.749.749 0 0 0 0 1.369l2.596 1.025a.686.686 0 0 1 .398.432l.963 2.783a.663.663 0 0 0 1.271 0l.963-2.783a.744.744 0 0 1 .406-.432l2.597-1.025a.754.754 0 0 0 .322-1.092.74.74 0 0 0-.322-.277l-2.597-1.025a.74.74 0 0 1-.406-.433l-.963-2.782a.659.659 0 0 0-.636-.477.662.662 0 0 0-.635.477Zm420.485 0-.962 2.782a.698.698 0 0 1-.398.433l-2.597 1.025a.752.752 0 0 0 0 1.369l2.597 1.025a.686.686 0 0 1 .398.432l.962 2.783a.664.664 0 0 0 1.272 0l.963-2.783a.742.742 0 0 1 .406-.432l2.597-1.025a.754.754 0 0 0 .322-1.092.74.74 0 0 0-.322-.277l-2.597-1.025a.737.737 0 0 1-.406-.433l-.963-2.782a.664.664 0 0 0-.636-.477.662.662 0 0 0-.636.477v0ZM895.77 504.447h72.339m-502.674 0h72.878m332.292-16.81h115.822m-538.401 0H565.88m334.694 33.621h51.963m-470.285 0h51.998m337.468 16.801h63.851m-436.844 0h65.494m-47.917 16.81h401.849M489.61 571.68h478.498" stroke="#1B96FF"/><path d="M759.605 383.03a70.259 70.259 0 0 1 28.115 56.279 71.425 71.425 0 0 1-.733 10.247m-139.105.998a71.525 71.525 0 0 1-.883-11.245 70.28 70.28 0 0 1 28.264-56.393" stroke="#3A49DA"/><path d="M754.156 361.556a86.047 86.047 0 0 1 48.418 89.116 86.054 86.054 0 0 1-12.054 33.803m-145.199 1.837a86.07 86.07 0 0 1-10.623-70.741 86.066 86.066 0 0 1 46.527-54.333" stroke="#3A49DA"/><path d="M750.022 343.032a101.685 101.685 0 0 1 63.886 64.554 101.7 101.7 0 0 1-13.178 89.865m-166.477.389a101.702 101.702 0 0 1-17.461-43.805 101.685 101.685 0 0 1 29.092-87.008 101.676 101.676 0 0 1 40.296-24.489" stroke="#3A49DA"/><path d="M753.272 327.636a117.344 117.344 0 0 1 72.504 67.046 117.37 117.37 0 0 1-4.342 98.662m-207.426 1.449a117.376 117.376 0 0 1 24.046-141.903 117.335 117.335 0 0 1 44.381-25.581" stroke="#3A49DA"/><path d="M590.691 479.66a132.918 132.918 0 0 1 19.277-118.599 132.897 132.897 0 0 1 107.031-54.586 132.869 132.869 0 0 1 60.108 14.2 132.909 132.909 0 0 1 67.08 158.341" stroke="#3A49DA"/><path d="M761.637 546.478h-88.494a3.496 3.496 0 0 0-3.497 3.497v1.228a3.497 3.497 0 0 0 3.497 3.498h88.494a3.498 3.498 0 0 0 3.498-3.498v-1.228a3.497 3.497 0 0 0-3.498-3.497Zm-266.604-76.146-44.163-44.167a20.586 20.586 0 0 0-14.556-6.034v0a20.578 20.578 0 0 1-14.556-6.024l-54.48-54.485a22.465 22.465 0 0 0-15.899-6.59h-5.511m46.186 14.531-10.979-10.989a12.07 12.07 0 0 0-8.532-3.533h-9.831m111.335 79.466-6.333-6.333a20.59 20.59 0 0 0-14.557-6.034v0a20.573 20.573 0 0 1-14.556-6.024l-41.133-41.129m86.798 69.74-5.564-5.564m33.21 33.213-21.622-21.624m-63.542-63.337-26.551-26.553a19.613 19.613 0 0 0-13.867-5.742h-6.704M512.84 454.459l-28.211-28.215a20.592 20.592 0 0 0-14.557-6.024v0a20.59 20.59 0 0 1-14.556-6.033l-22.505-22.517m95.816 78.777-10.29-10.282m27.037 10.212-44.163-44.168a20.572 20.572 0 0 0-14.548-6.033v0a20.585 20.585 0 0 1-14.556-6.025L416.662 358.5a18.612 18.612 0 0 0-13.152-5.45h-7.119m92.663 67.09h-52.652m503.645 50.192 44.163-44.167a20.594 20.594 0 0 1 14.557-6.034v0c2.703.001 5.383-.53 7.873-1.564a20.528 20.528 0 0 0 6.68-4.46l54.54-54.521a22.505 22.505 0 0 1 7.3-4.879 22.422 22.422 0 0 1 8.6-1.71h5.52m-46.26 14.566 10.99-10.989a12.06 12.06 0 0 1 8.53-3.533h9.83m-111.336 79.466 6.333-6.334a20.59 20.59 0 0 1 14.556-6.033v0a20.572 20.572 0 0 0 14.547-6.024l41.12-41.129m-86.776 69.74 5.556-5.564m-33.202 33.213 21.622-21.624m63.53-63.337 26.55-26.553a19.678 19.678 0 0 1 13.88-5.742h6.7M922.241 454.459l28.211-28.215a20.572 20.572 0 0 1 14.547-6.024 20.583 20.583 0 0 0 14.557-6.033l22.514-22.517m-95.817 78.777 10.282-10.282m-27.037 10.212 44.163-44.168a20.585 20.585 0 0 1 14.556-6.033v0c2.703.001 5.38-.531 7.878-1.564a20.595 20.595 0 0 0 6.679-4.461l55.646-55.651a18.615 18.615 0 0 1 13.16-5.45h7.14m-92.693 67.09h52.642" stroke="#1B96FF"/><path d="M575.304 482.902a149.612 149.612 0 0 1-2.756-76.851 147.67 147.67 0 0 1 3.595-12.968 148.595 148.595 0 0 1 73.172-85.78 148.568 148.568 0 0 1 112.323-9.71 148.589 148.589 0 0 1 86.804 71.95 148.607 148.607 0 0 1 11.308 112.184" stroke="#3A49DA"/><path d="M506.869 272.549v-6.704m3.348 3.348h-6.704m213.572-31.978v-6.704m3.348 3.348h-6.704m3.356-191.866V35.29m3.348 3.348h-6.704m129.866 233.911v-6.704m3.348 3.348h-6.704m-290.02 154.445a2.712 2.712 0 1 0 0-5.423 2.712 2.712 0 0 0 0 5.423Zm335.19 0a2.712 2.712 0 1 0-.001-5.423 2.712 2.712 0 0 0 .001 5.423ZM380.377 306.833l-.963 2.606a.65.65 0 0 1-.397.397l-2.597.963a.687.687 0 0 0-.319.249.686.686 0 0 0 0 .773c.079.114.19.201.319.25l2.597.963a.641.641 0 0 1 .243.154.641.641 0 0 1 .154.243l.963 2.606a.683.683 0 0 0 .636.439.68.68 0 0 0 .636-.439l.963-2.606a.703.703 0 0 1 .406-.397l2.597-.963a.676.676 0 0 0 .318-.25.674.674 0 0 0 0-.773.68.68 0 0 0-.318-.249l-2.597-.963a.7.7 0 0 1-.406-.397l-.963-2.606a.678.678 0 0 0-1.022-.319.678.678 0 0 0-.25.319v0Zm168.924 0-.963 2.606a.672.672 0 0 1-.398.397l-2.649.963a.678.678 0 0 0-.319 1.022.673.673 0 0 0 .319.25l2.649.963a.672.672 0 0 1 .398.397l.963 2.606a.683.683 0 0 0 1.272 0l.962-2.606a.672.672 0 0 1 .398-.397l2.65-.963a.676.676 0 0 0 .318-.25.674.674 0 0 0 0-.773.68.68 0 0 0-.318-.249l-2.65-.963a.676.676 0 0 1-.398-.397l-.962-2.606a.684.684 0 0 0-.636-.439.683.683 0 0 0-.636.439v0Zm420.168 0-.963 2.606a.65.65 0 0 1-.397.397l-2.597.963a.687.687 0 0 0-.319.249.686.686 0 0 0 0 .773c.079.114.19.201.319.25l2.597.963a.65.65 0 0 1 .397.397l.963 2.606c.049.129.136.24.249.319a.686.686 0 0 0 .773 0 .683.683 0 0 0 .25-.319l.963-2.606a.7.7 0 0 1 .406-.397l2.597-.963a.676.676 0 0 0 .318-.25.674.674 0 0 0 0-.773.68.68 0 0 0-.318-.249l-2.597-.963a.704.704 0 0 1-.406-.397l-.963-2.606a.678.678 0 0 0-1.023-.319.682.682 0 0 0-.249.319Zm-504.078 7.463a2.711 2.711 0 1 0 0-5.423 2.711 2.711 0 0 0 0 5.423Zm420.168 0a2.711 2.711 0 1 0 0-5.423 2.711 2.711 0 0 0 0 5.423Zm168.651 0c1.5 0 2.71-1.214 2.71-2.711a2.709 2.709 0 0 0-2.71-2.712c-1.5 0-2.71 1.214-2.71 2.712a2.709 2.709 0 0 0 2.71 2.711Zm-715.77-49.652-.963 2.597a.647.647 0 0 1-.398.397l-2.597.963a.676.676 0 0 0-.318.25.674.674 0 0 0 0 .772.676.676 0 0 0 .318.25l2.597.963a.67.67 0 0 1 .398.406l.963 2.597a.678.678 0 0 0 1.28 0l.954-2.597a.716.716 0 0 1 .406-.406l2.597-.963a.683.683 0 0 0 .439-.636.68.68 0 0 0-.439-.636l-2.597-.945a.677.677 0 0 1-.406-.398l-.954-2.597a.675.675 0 0 0-.634-.46.679.679 0 0 0-.646.443Zm105.991-26.501-.963 2.597a.632.632 0 0 1-.397.398l-2.597.963a.677.677 0 0 0-.318 1.022.676.676 0 0 0 .318.25l2.597.962a.666.666 0 0 1 .397.407l.963 2.597a.678.678 0 0 0 1.032.327.678.678 0 0 0 .249-.327l.954-2.597a.697.697 0 0 1 .406-.407l2.597-.962a.683.683 0 0 0 .319-1.023.675.675 0 0 0-.319-.249l-2.597-.946a.667.667 0 0 1-.406-.397l-.954-2.597a.684.684 0 0 0-.634-.46.683.683 0 0 0-.647.442v0Zm230.382 26.501-.963 2.597a.647.647 0 0 1-.398.397l-2.596.963a.673.673 0 0 0-.439.636.68.68 0 0 0 .439.636l2.596.963a.67.67 0 0 1 .398.406l.963 2.597a.683.683 0 0 0 1.271 0l.963-2.597a.716.716 0 0 1 .406-.406l2.597-.963a.683.683 0 0 0 .439-.636.68.68 0 0 0-.439-.636l-2.588-.945a.677.677 0 0 1-.406-.398l-.963-2.597a.675.675 0 0 0-.634-.46.681.681 0 0 0-.646.443Zm336.337-26.501-.96 2.597a.76.76 0 0 1-.16.244.667.667 0 0 1-.24.154l-2.6.963a.69.69 0 0 0-.32.249.754.754 0 0 0-.12.387c0 .138.05.272.12.386.08.114.19.201.32.25l2.6.962a.73.73 0 0 1 .4.407l.96 2.597a.681.681 0 0 0 1.02.319c.12-.079.2-.19.25-.319l.96-2.597a.773.773 0 0 1 .16-.247c.07-.07.16-.124.25-.16l2.6-.962a.686.686 0 0 0 .32-.25.75.75 0 0 0 .12-.386.754.754 0 0 0-.12-.387.69.69 0 0 0-.32-.249l-2.6-.963a.706.706 0 0 1-.25-.154.76.76 0 0 1-.16-.244l-.96-2.597a.646.646 0 0 0-.25-.318.667.667 0 0 0-.77 0 .708.708 0 0 0-.25.318Zm-419.806 33.858a2.712 2.712 0 1 0 0-5.423 2.712 2.712 0 0 0 0 5.423Zm168.182 0a2.712 2.712 0 1 0 0-5.423 2.712 2.712 0 0 0 0 5.423Zm168.173 0a2.712 2.712 0 1 0 0-5.423 2.712 2.712 0 0 0 0 5.423Zm168.171 0c1.5 0 2.71-1.214 2.71-2.711a2.709 2.709 0 0 0-2.71-2.712c-1.5 0-2.71 1.214-2.71 2.712a2.709 2.709 0 0 0 2.71 2.711Zm-590.441-70.12v-6.704m-3.347 3.348h6.712m80.236 3.356v-6.704m-3.356 3.348h6.713M589.03 7.587V.883m-3.356 3.357h6.713m501.793 189.735.96 2.597c.03.092.09.175.16.244s.15.121.25.154l2.59.963a.67.67 0 0 1 .44.636.686.686 0 0 1-.44.636l-2.59.963c-.1.035-.18.09-.25.16a.632.632 0 0 0-.16.246l-.96 2.597a.716.716 0 0 1-.25.319.705.705 0 0 1-.39.12.705.705 0 0 1-.39-.12.716.716 0 0 1-.25-.319l-.96-2.597a.612.612 0 0 0-.15-.247.627.627 0 0 0-.25-.159l-2.59-.963a.686.686 0 0 1-.44-.636.67.67 0 0 1 .44-.636l2.59-.963a.615.615 0 0 0 .4-.398l.96-2.597c.05-.129.14-.24.25-.318a.698.698 0 0 1 .39-.121c.14 0 .27.042.39.121.11.078.2.189.25.318v0Zm-336.341.001.963 2.597a.657.657 0 0 0 .406.397l2.597.963c.129.049.24.136.318.25a.674.674 0 0 1 0 .773.68.68 0 0 1-.318.249l-2.597.963a.702.702 0 0 0-.406.406l-.963 2.597a.678.678 0 0 1-1.023.319.682.682 0 0 1-.249-.319l-.963-2.597a.675.675 0 0 0-.397-.406l-2.597-.963a.687.687 0 0 1-.319-.249.686.686 0 0 1 0-.773.683.683 0 0 1 .319-.25l2.579-.945a.635.635 0 0 0 .398-.398l.962-2.597a.68.68 0 0 1 1.29-.017v0ZM403.81 149.808l.954 2.597a.67.67 0 0 0 .406.397l2.597.963a.683.683 0 0 1 .439.636.68.68 0 0 1-.439.636l-2.597.963a.702.702 0 0 0-.406.406l-.954 2.597a.678.678 0 0 1-1.032.327.685.685 0 0 1-.249-.327l-.954-2.597a.702.702 0 0 0-.406-.406l-2.597-.963a.676.676 0 0 1-.318-.25.674.674 0 0 1 0-.772.676.676 0 0 1 .318-.25l2.597-.963a.656.656 0 0 0 .247-.154.646.646 0 0 0 .159-.243l.954-2.597a.68.68 0 0 1 1.281 0v0Zm437.471 51.525a2.711 2.711 0 1 0 0-5.423 2.711 2.711 0 0 0 0 5.423Zm0-194.391a2.711 2.711 0 1 0 0-5.423 2.711 2.711 0 0 0 0 5.423ZM673.099 201.333a2.711 2.711 0 1 0 0-5.423 2.711 2.711 0 0 0 0 5.423Zm-413.42-7.357.963 2.597a.67.67 0 0 0 .406.397l2.597.963a.683.683 0 0 1 .319 1.023.687.687 0 0 1-.319.249l-2.597.963a.702.702 0 0 0-.406.406l-.963 2.597a.682.682 0 0 1-.636.439.68.68 0 0 1-.636-.439l-.962-2.597a.677.677 0 0 0-.398-.406l-2.597-.963a.68.68 0 0 1 0-1.272l2.579-.945a.627.627 0 0 0 .245-.153.62.62 0 0 0 .153-.245l.963-2.597a.678.678 0 0 1 1.037-.35.679.679 0 0 1 .252.333v0Zm-51.176-50.944a2.712 2.712 0 1 0 0-5.423 2.712 2.712 0 0 0 0 5.423Zm1014.817-7.358.96 2.597a.76.76 0 0 0 .16.244c.07.069.15.121.25.153l2.59.963a.686.686 0 0 1 .44.636.67.67 0 0 1-.44.636l-2.59.963c-.1.036-.18.09-.25.16a.773.773 0 0 0-.16.247l-.96 2.597a.708.708 0 0 1-.25.318.675.675 0 0 1-1.02-.318l-.97-2.597a.616.616 0 0 0-.15-.248.694.694 0 0 0-.24-.159l-2.6-.963a.67.67 0 0 1-.44-.636.686.686 0 0 1 .44-.636l2.58-.945a.636.636 0 0 0 .24-.152.764.764 0 0 0 .16-.245l.96-2.597a.683.683 0 0 1 .24-.34.688.688 0 0 1 .8-.011c.11.082.2.198.25.333v0Zm-51.18 65.659c1.5 0 2.71-1.214 2.71-2.711a2.709 2.709 0 0 0-2.71-2.712c-1.5 0-2.71 1.214-2.71 2.712a2.709 2.709 0 0 0 2.71 2.711Zm-245.898 0a2.71 2.71 0 1 0 0-5.423 2.712 2.712 0 1 0 0 5.423Zm-589.498 0a2.711 2.711 0 1 0 0-5.423 2.711 2.711 0 0 0 0 5.423Zm128.055-87.788v-6.704m-3.347 3.348h6.712m418.525 21.024v-6.704m-3.356 3.347h6.713m120.304 30.741v-6.704m-3.36 3.347h6.71m39.85-76.1.96 2.597c.03.092.09.175.16.244.07.068.15.12.25.153l2.59.963c.13.05.24.136.32.25.08.113.12.248.12.386s-.04.273-.12.387c-.08.113-.19.2-.32.25l-2.59.962c-.1.036-.18.09-.25.16a.637.637 0 0 0-.16.246l-.96 2.597a.712.712 0 0 1-.25.32.702.702 0 0 1-.39.12.702.702 0 0 1-.39-.12.712.712 0 0 1-.25-.32l-.96-2.597a.642.642 0 0 0-.4-.406l-2.59-.963a.687.687 0 0 1-.32-.25.668.668 0 0 1-.12-.386c0-.138.04-.273.12-.386.08-.114.19-.2.32-.25l2.59-.963a.608.608 0 0 0 .4-.397l.96-2.597a.71.71 0 0 1 .25-.319c.12-.078.25-.12.39-.12s.27.042.39.12c.11.079.2.19.25.319Zm-88.33 25.617.963 2.597a.67.67 0 0 0 .406.398l2.597.962a.683.683 0 0 1 .319 1.023.687.687 0 0 1-.319.249l-2.597.963a.716.716 0 0 0-.406.407l-.963 2.597a.68.68 0 0 1-1.272 0l-.962-2.597a.673.673 0 0 0-.398-.407l-2.597-.963a.68.68 0 0 1 0-1.272l2.597-.962a.647.647 0 0 0 .398-.398l.962-2.597a.683.683 0 0 1 1.023-.319c.113.079.2.19.249.319v0Zm239.44-44.213V53.84m-3.35 3.348h6.71m68.99 22.835.96 2.597c.04.092.09.175.16.244s.16.121.25.154l2.6.963a.68.68 0 0 1 .32.25.75.75 0 0 1 .12.386.75.75 0 0 1-.12.386c-.08.114-.19.2-.32.25l-2.6.962a.743.743 0 0 0-.25.16.777.777 0 0 0-.16.247l-.96 2.597a.65.65 0 0 1-.25.318.67.67 0 0 1-.77 0 .712.712 0 0 1-.25-.318l-.96-2.597a.78.78 0 0 0-.16-.248.685.685 0 0 0-.24-.159l-2.6-.963a.687.687 0 0 1-.32-.25.75.75 0 0 1-.12-.385.75.75 0 0 1 .12-.387c.08-.114.19-.2.32-.25l2.6-.962a.572.572 0 0 0 .24-.153.626.626 0 0 0 .16-.245l.96-2.597a.679.679 0 0 1 1.27 0ZM154.359 88.811v-6.704m-3.348 3.349h6.704m69.884-33.7.963 2.597a.63.63 0 0 0 .397.397l2.597.963a.685.685 0 0 1 .439.636.683.683 0 0 1-.439.636l-2.597.963a.663.663 0 0 0-.397.406l-.963 2.597a.684.684 0 0 1-.636.44.678.678 0 0 1-.636-.44l-.963-2.597a.698.698 0 0 0-.406-.406l-2.597-.963a.677.677 0 0 1-.439-.636.677.677 0 0 1 .439-.636l2.597-.945a.666.666 0 0 0 .406-.398l.963-2.597a.682.682 0 0 1 1.018-.333.68.68 0 0 1 .254.316v0Zm489.61 71.551.963 2.597a.67.67 0 0 0 .406.398l2.597.963a.68.68 0 0 1 0 1.272l-2.597.963a.702.702 0 0 0-.406.406l-.963 2.597a.683.683 0 0 1-.636.439.68.68 0 0 1-.636-.439l-.963-2.597a.667.667 0 0 0-.397-.406l-2.597-.963a.683.683 0 0 1-.319-1.023c.079-.113.19-.2.319-.249l2.579-.946a.632.632 0 0 0 .398-.397l.962-2.597a.681.681 0 0 1 1.29-.018v0ZM363.18 79.14l.954 2.596a.666.666 0 0 0 .406.397l2.597.964a.677.677 0 0 1 .439.636.677.677 0 0 1-.439.636l-2.597.963a.71.71 0 0 0-.406.406l-.954 2.597a.684.684 0 0 1-.641.451.678.678 0 0 1-.64-.451l-.954-2.597a.7.7 0 0 0-.406-.406l-2.597-.963a.685.685 0 0 1-.439-.636.683.683 0 0 1 .439-.636l2.597-.946a.674.674 0 0 0 .406-.397l.954-2.597a.68.68 0 0 1 1.281-.018v0Zm437.471 16.19a2.712 2.712 0 1 0 0-5.422 2.712 2.712 0 0 0 0 5.423Zm-168.182 0a2.712 2.712 0 1 0 0-5.422 2.712 2.712 0 0 0 0 5.423Zm-83.38 35.335a2.712 2.712 0 1 0 0-5.423 2.712 2.712 0 0 0 0 5.423Zm-252.976 0a2.712 2.712 0 1 0 0-5.423 2.712 2.712 0 0 0 0 5.423Zm839.987 0c1.49 0 2.71-1.214 2.71-2.712a2.715 2.715 0 0 0-5.43 0 2.717 2.717 0 0 0 2.72 2.712Z" stroke="#1B96FF"/><path d="m377.63 265.589 14.618 14.611m4.805 4.814 1.855 1.855m-59.832-59.839 32.822 32.817m5.732-66.693 14.618 14.61m4.805 4.815 1.855 1.855m-59.832-59.839 32.822 32.817m686.232 5.742-14.61 14.61m-4.81 4.815-1.86 1.854m59.83-59.838-32.81 32.817m-5.55 78.177-14.6 14.611m-4.82 4.814-1.84 1.855m59.82-59.839-32.81 32.817m-600.781 91.409 5.14 5.132m71.456 19.85 10.273 10.264m-11.916-131.274 18.875 18.868m4.444 4.443 3.603 3.603M529.41 158.058l18.875 18.869m4.443 4.443 3.604 3.604m359.487-26.916-18.866 18.869m-4.443 4.443-3.613 3.604m-277.503 46.235 7.552 7.552m200.474-8.144-8.144 8.143m161.178 112.496-5.132 5.132m-71.465 19.85-9.804 9.805m13.974-130.815-18.876 18.868m48.545-48.55-18.876 18.878m-34.112 34.115-3.604 3.603m67.553-212.419-18.876 18.869m48.545-48.55L951.45 58.919m-34.112 34.116-3.603 3.603M492.94 69.723l18.875 18.869m-48.544-48.55 18.866 18.877m34.121 34.116 3.604 3.603" stroke="#3A49DA"/><path d="M623.857 511.638h9.442a8.089 8.089 0 0 1 5.724 2.367 8.092 8.092 0 0 1 2.367 5.724v0a8.095 8.095 0 0 1-8.091 8.092h-.768a13.247 13.247 0 0 0-13.249 13.011v.398a13.251 13.251 0 0 0 13.249 13.445h179.187a11.996 11.996 0 0 0 11.995-11.996v0a12 12 0 0 0-3.513-8.483 11.999 11.999 0 0 0-8.482-3.513h-8.523a9.525 9.525 0 0 1-9.531-9.505v0a9.522 9.522 0 0 1 9.522-9.523h8.329M703.483 366.309c-15.492-4.894-16.976-26.103-16.976-26.103m45.081 26.103c15.502-4.894 16.985-26.103 16.985-26.103m-29.597-25.123h-6.051a17.6 17.6 0 0 0-12.683 5.389l-12.428 12.879-7.702-9.602a8.718 8.718 0 0 1 .76-11.749v0a8.114 8.114 0 0 1 12.012.84l6.642 8.365" stroke="#1B96FF"/><path d="M716.025 315.083h6.051a17.667 17.667 0 0 1 12.692 5.389l.954.989 11.483 11.89 7.719-9.602a8.706 8.706 0 0 0-.751-11.749v0a8.122 8.122 0 0 0-9.436-1.321 8.139 8.139 0 0 0-2.585 2.161l-7.887 8.701m-7.826 22.313 4.231 20.732c.574 2.845-.733 4.894-3.374 7.067h-.062c-7.949 6.228-10.599 6.228-19.485 0h-.132c-2.147-1.82-3.533-3.754-3.092-6.307l3.931-21.51a9.195 9.195 0 0 1 8.991-7.234v0a9.206 9.206 0 0 1 8.992 7.234" stroke="#1B96FF"/><path d="m705.1 368.809 4.451 13.488h11.068" stroke="#1B96FF"/><path d="m730.732 366.971-5.07 15.326h-11.067m-26.658-48.778-10.89 45.846 22.417 16.377a3.965 3.965 0 0 0 6.103-1.917l3.984-11.545" stroke="#1B96FF"/><path d="m747.399 333.024 10.599 46.332-22.408 16.386a3.986 3.986 0 0 1-5.123-.361 3.974 3.974 0 0 1-.989-1.556l-3.984-11.545m-48.447-2.916-13.434 38.868a9.005 9.005 0 0 0 4.186 10.83l35.87 19.857.203-52.294m-47.308 47.021 6.528-21.872m-18.929 84.581 3.63-51.949a12.099 12.099 0 0 1 11.437-11.081 12.1 12.1 0 0 1 5.637 1.072l7.728 3.534a27.776 27.776 0 0 1 14.85 16.494 27.793 27.793 0 0 1-1.963 22.108m2.244-5.362 15.66-31.65" stroke="#1B96FF"/><path d="m645.995 504.998-1.028 1.034a3.676 3.676 0 0 0 .016 5.197l10.404 10.344a3.675 3.675 0 0 0 5.197-.015l1.027-1.034a3.675 3.675 0 0 0-.015-5.197l-10.405-10.344a3.674 3.674 0 0 0-5.196.015Zm6.204-6.252-1.027 1.034a3.675 3.675 0 0 0 .015 5.197l10.405 10.344a3.675 3.675 0 0 0 5.197-.015l1.027-1.034a3.675 3.675 0 0 0-.015-5.197l-10.405-10.344a3.675 3.675 0 0 0-5.197.015Zm6.221-6.245-1.028 1.034a3.675 3.675 0 0 0 .016 5.197l10.404 10.344a3.675 3.675 0 0 0 5.197-.015l1.027-1.034a3.675 3.675 0 0 0-.015-5.197l-10.405-10.344a3.674 3.674 0 0 0-5.196.015Zm60.132-32.053h-5.574a23.848 23.848 0 0 0-21.278 13.029l-4.301 8.834m70.555-102.469 14.017 38.258a8.993 8.993 0 0 1-4.134 10.98l-35.613 20.061-.318-52.515m40.816 25.148 6.501 21.872m-28.918 42.87a27.788 27.788 0 0 1-1.97-22.108 27.773 27.773 0 0 1 14.848-16.495l7.737-3.533a12.08 12.08 0 0 1 11.131.573 12.096 12.096 0 0 1 5.934 9.435l3.736 53.761m-43.66-26.978-15.66-31.65" stroke="#1B96FF"/><path d="m774.169 520.518 1.028 1.034a3.675 3.675 0 0 0 5.196.016l10.405-10.345a3.675 3.675 0 0 0 .015-5.197l-1.027-1.033a3.675 3.675 0 0 0-5.197-.016l-10.404 10.345a3.674 3.674 0 0 0-.016 5.196Z" stroke="#1B96FF"/><path d="m767.952 514.286 1.028 1.034a3.674 3.674 0 0 0 5.196.015l10.405-10.344a3.675 3.675 0 0 0 .015-5.197l-1.027-1.034a3.674 3.674 0 0 0-5.196-.015l-10.405 10.344a3.676 3.676 0 0 0-.016 5.197Zm-6.207-6.254 1.028 1.033a3.674 3.674 0 0 0 5.196.016l10.405-10.345a3.674 3.674 0 0 0 .015-5.196l-1.027-1.034a3.676 3.676 0 0 0-5.197-.016l-10.404 10.345a3.676 3.676 0 0 0-.016 5.197Zm-44.536-47.584h5.582a23.851 23.851 0 0 1 21.287 13.029l4.31 8.834m-103.659 13.135a21.65 21.65 0 0 0-20.996 16.316m54.374 33.028-25.147-25.44m137.895-23.904a21.657 21.657 0 0 1 20.978 16.236m-55.857 34.61 26.648-26.942m-123.216-85.986 40.948 21.695m74.971-21.695-39.561 21.386" stroke="#1B96FF"/><path d="m755.545 501.828 1.028 1.034a3.675 3.675 0 0 0 5.196.016l10.405-10.345a3.675 3.675 0 0 0 .015-5.197l-1.027-1.033a3.675 3.675 0 0 0-5.197-.016l-10.404 10.345a3.674 3.674 0 0 0-.016 5.196Zm32.996-37.829-31.859 31.076m-109.701-31.076 24.299 23.709m-6.668-1.405-1.028 1.033a3.674 3.674 0 0 0 .016 5.197l10.404 10.344a3.675 3.675 0 0 0 5.197-.015l1.027-1.034a3.675 3.675 0 0 0-.015-5.197l-10.405-10.344a3.673 3.673 0 0 0-5.196.016Z" stroke="#1B96FF"/><path d="M755.949 502.036v44.441h-76.676v-43.373m0-8.568v-8.021h76.676v9.894m-24.943-149.27a3.913 3.913 0 1 0 0-7.826 3.913 3.913 0 0 0 0 7.826Zm-26.101 0a3.913 3.913 0 1 0 0-7.826 3.913 3.913 0 0 0 0 7.826Zm12.066 9.478-4.487-4.495a1.39 1.39 0 0 1-.301-1.512 1.392 1.392 0 0 1 1.281-.856h8.983a1.39 1.39 0 0 1 1.36 1.658 1.39 1.39 0 0 1-.38.71l-4.451 4.495a1.41 1.41 0 0 1-1.003.421 1.404 1.404 0 0 1-1.002-.421v0Zm-17.533-35.174a15.786 15.786 0 0 1 14.238 15.706v0m21.869-15.697a15.773 15.773 0 0 0-14.132 15.697M604.301 496.833a17.135 17.135 0 1 0-32.268 8.033 17.136 17.136 0 0 0 5.974 6.445" stroke="#1B96FF"/><path d="M575.128 484.74a17.268 17.268 0 0 0-5.063 12.212 17.25 17.25 0 0 0 5.063 12.212 13.817 13.817 0 0 0 15.055 2.996 13.794 13.794 0 0 0 4.482-2.996 11.035 11.035 0 0 0 2.398-12.042 11.035 11.035 0 0 0-2.398-3.584 8.833 8.833 0 0 0-12.507 0 7.052 7.052 0 0 0-1.533 2.294 7.055 7.055 0 0 0 0 5.412 7.048 7.048 0 0 0 1.533 2.293m-22.788 1.07a13.248 13.248 0 0 0-18.573 15.388 13.257 13.257 0 0 0 10.648 9.608 13.247 13.247 0 0 0 13.154-5.713m5.273-27.252a8.378 8.378 0 0 0-2.376-.344 8.232 8.232 0 0 0-8.232 8.232" stroke="#1B96FF"/><path d="M544.328 526.027a13.14 13.14 0 0 0 18.549 0 10.52 10.52 0 0 0 0-14.866 8.418 8.418 0 0 0-11.889 0 6.71 6.71 0 0 0-1.462 7.332 6.71 6.71 0 0 0 1.462 2.181" stroke="#1B96FF"/><path d="M564.829 523.66a19.711 19.711 0 0 0 26.599 9.085 19.71 19.71 0 0 0 7.689-6.868m.265.009a14.753 14.753 0 0 0 13.37 7.349 14.759 14.759 0 0 0 12.73-8.409" stroke="#1B96FF"/><path d="M601.731 528.863a14.868 14.868 0 0 0 16.213 3.227 14.888 14.888 0 0 0 4.827-3.227 11.9 11.9 0 0 0 0-16.827 9.518 9.518 0 0 0-6.731-2.791 9.503 9.503 0 0 0-6.73 2.791 7.593 7.593 0 0 0-2.234 5.384 7.61 7.61 0 0 0 2.234 5.384 6.095 6.095 0 0 0 8.612 0M628 503.342a16.651 16.651 0 0 0-23.513-6.553m226.848.044a17.139 17.139 0 0 1 16.872-17.129 17.139 17.139 0 0 1 14.877 8.185 17.146 17.146 0 0 1 .528 16.973 17.137 17.137 0 0 1-5.964 6.449" stroke="#1B96FF"/><path d="M860.509 484.74a17.278 17.278 0 0 1 0 24.424 13.817 13.817 0 0 1-15.055 2.996 13.794 13.794 0 0 1-4.482-2.996 11.035 11.035 0 0 1-2.398-12.042 11.035 11.035 0 0 1 2.398-3.584 8.824 8.824 0 0 1 6.249-2.591 8.824 8.824 0 0 1 6.249 2.591 7.07 7.07 0 0 1 1.534 7.706 7.067 7.067 0 0 1-1.534 2.293m22.788 1.069a13.247 13.247 0 0 1 18.42 7.906 13.245 13.245 0 0 1-17.901 16.166 13.241 13.241 0 0 1-5.739-4.789" stroke="#1B96FF"/><path d="M865.765 496.638a8.387 8.387 0 0 1 2.367-.344 8.227 8.227 0 0 1 5.821 2.411 8.237 8.237 0 0 1 2.411 5.821m14.936 21.501a13.131 13.131 0 0 1-18.549 0 10.509 10.509 0 0 1-2.278-11.456 10.509 10.509 0 0 1 2.278-3.41 8.418 8.418 0 0 1 11.889 0 6.73 6.73 0 0 1 0 9.513" stroke="#1B96FF"/><path d="M870.808 523.66a19.711 19.711 0 0 1-26.599 9.085 19.703 19.703 0 0 1-7.689-6.868m-.265.009a14.753 14.753 0 0 1-13.37 7.349 14.759 14.759 0 0 1-12.73-8.409" stroke="#1B96FF"/><path d="M833.897 528.863a14.873 14.873 0 0 1-21.04 0 11.898 11.898 0 0 1 0-16.827 9.532 9.532 0 0 1 13.47 0 7.62 7.62 0 0 1 0 10.768 6.103 6.103 0 0 1-8.62 0m-10.043-19.462a16.651 16.651 0 0 1 10.315-8.396 16.638 16.638 0 0 1 13.171 1.843m-115.443 9.046a5.295 5.295 0 0 1 4.574-1.651 5.305 5.305 0 0 1 3.994 2.772 6.481 6.481 0 0 1 2.65-.556 6.6 6.6 0 0 1 6.357 6.594 6.596 6.596 0 0 1-6.357 6.594 6.81 6.81 0 0 1-1.29-.123 4.772 4.772 0 0 1-6.262 1.961 5.445 5.445 0 0 1-5.154 3.33 5.451 5.451 0 0 1-4.986-3.578 5.002 5.002 0 0 1-1.042.115 5.122 5.122 0 0 1-4.68-7.081 5.126 5.126 0 0 1 2.154-2.468 5.89 5.89 0 0 1 6.544-8.102 5.893 5.893 0 0 1 3.543 2.193h-.045Z" stroke="#1B96FF"/><path d="m549.778 588.869-251.96-251.976m839.982-.68-16.51 16.519-236.367 236.385" stroke="#3A49DA"/><path d="M1032.22 352.988h115.64a8.162 8.162 0 0 0 3.14-.623 8.202 8.202 0 0 0 4.45-4.441 8.27 8.27 0 0 0 .63-3.143v0a8.43 8.43 0 0 0-.64-3.213 8.55 8.55 0 0 0-1.83-2.724 8.359 8.359 0 0 0-5.93-2.455h-35.29c-2.23 0-4.36-.885-5.94-2.46a8.382 8.382 0 0 1-2.46-5.94c0-1.103.22-2.195.64-3.214a8.388 8.388 0 0 1 4.55-4.542 8.354 8.354 0 0 1 3.21-.636h67.29a8.395 8.395 0 0 0 5.93-2.461c.78-.78 1.4-1.707 1.82-2.726.42-1.019.64-2.111.64-3.214v0c0-1.103-.22-2.195-.64-3.214a8.364 8.364 0 0 0-1.82-2.725c-.78-.781-1.7-1.4-2.72-1.822a8.395 8.395 0 0 0-3.21-.64h-33.62c-2.23 0-4.36-.884-5.93-2.457a8.37 8.37 0 0 1-2.46-5.934v0c0-1.103.21-2.195.63-3.215a8.525 8.525 0 0 1 1.82-2.725 8.41 8.41 0 0 1 2.73-1.821 8.34 8.34 0 0 1 3.21-.64h41.51m-788.759 66.985h-111.68a8.206 8.206 0 0 1-8.206-8.207 8.393 8.393 0 0 1 8.391-8.392h35.331a8.394 8.394 0 0 0 7.755-5.186 8.4 8.4 0 0 0 .636-3.214v0a8.39 8.39 0 0 0-8.391-8.392h-67.322a8.398 8.398 0 0 1-8.4-8.401v0a8.4 8.4 0 0 1 8.4-8.401h33.617a8.394 8.394 0 0 0 8.391-8.391v0a8.398 8.398 0 0 0-2.458-5.937 8.393 8.393 0 0 0-5.933-2.464h-40.745" stroke="#1B96FF"/></g><defs><clipPath id="clip0_401_15829"><path fill="#fff" d="M0 0h1440v590H0z"/></clipPath></defs></svg>